<svg xmlns="http://www.w3.org/2000/svg" viewBox="0 0 100 120" width="100" height="120">
  <!-- Tree trunk -->
  <rect x="45" y="95" width="10" height="15" fill="#8B4513" rx="2"/>
  
  <!-- Tree layers (from bottom to top) -->
  <!-- Bottom layer -->
  <path d="M 20 90 L 50 60 L 80 90 Z" fill="#228B22"/>
  
  <!-- Middle layer -->
  <path d="M 25 70 L 50 45 L 75 70 Z" fill="#32CD32"/>
  
  <!-- Top layer -->
  <path d="M 30 55 L 50 35 L 70 55 Z" fill="#228B22"/>
  
  <!-- Star on top -->
  <path d="M 50 20 L 52 28 L 60 28 L 54 33 L 56 41 L 50 36 L 44 41 L 46 33 L 40 28 L 48 28 Z" fill="#FFD700"/>
  
  <!-- Ornaments (decorations) -->
  <circle cx="35" cy="75" r="3" fill="#FF0000"/>
  <circle cx="65" cy="75" r="3" fill="#FFD700"/>
  <circle cx="40" cy="60" r="2.5" fill="#FF1493"/>
  <circle cx="60" cy="60" r="2.5" fill="#00BFFF"/>
  <circle cx="50" cy="50" r="2.5" fill="#FFD700"/>
  
  <!-- Small lights -->
  <circle cx="30" cy="82" r="1.5" fill="#FFFF00"/>
  <circle cx="70" cy="82" r="1.5" fill="#FFFF00"/>
  <circle cx="45" cy="65" r="1.5" fill="#FFFF00"/>
  <circle cx="55" cy="65" r="1.5" fill="#FFFF00"/>
</svg>

